<svg width="18" height="17" viewBox="0 0 18 17" fill="none" xmlns="http://www.w3.org/2000/svg">
<g clip-path="url(#clip0_931_278)">
<path d="M15.5278 2.50001H13.5416C13.4419 2.50001 13.3611 2.42539 13.3611 2.33334V1.16667C13.3611 0.798482 13.0377 0.500005 12.6389 0.500005C12.24 0.500005 11.9166 0.798482 11.9166 1.16667V4.33334C11.9166 4.60948 11.6741 4.83334 11.375 4.83334C11.0758 4.83334 10.8333 4.60948 10.8333 4.33334V2.83334C10.8333 2.64924 10.6716 2.50001 10.4722 2.50001H5.95831C5.85887 2.50001 5.77815 2.42579 5.77775 2.33401V1.16667V1.16667C5.77775 0.798477 5.4544 0.5 5.05553 0.5C4.65666 0.5 4.33331 0.798477 4.33331 1.16667C4.33331 1.16667 4.33331 1.16667 4.33331 1.16668V4.33334C4.33331 4.60949 4.09079 4.83334 3.79164 4.83334C3.49249 4.83334 3.24997 4.60949 3.24997 4.33334V2.83334C3.24997 2.64924 3.0883 2.5 2.88886 2.5H1.80553C1.00778 2.5 0.361084 3.09696 0.361084 3.83334V15.1667C0.361084 15.9031 1.00778 16.5 1.80553 16.5H15.5278C16.3255 16.5 16.9722 15.9031 16.9722 15.1667V3.83334C16.9722 3.09696 16.3255 2.5 15.5278 2.5V2.50001ZM15.5278 14.8333C15.5278 15.0174 15.3661 15.1667 15.1666 15.1667H2.16664C1.9672 15.1667 1.80553 15.0174 1.80553 14.8333V6.83334C1.80553 6.64924 1.9672 6.50001 2.16664 6.50001H15.1666C15.3661 6.50001 15.5278 6.64924 15.5278 6.83334V14.8333Z" fill="#1C1B1F"/>
<path d="M6.97152 7.93374C6.5958 7.76602 6.14911 7.81244 5.82319 8.05307L4.60408 8.95307C4.29256 9.18319 4.24212 9.60285 4.49141 9.89041C4.74071 10.178 5.19534 10.2245 5.50686 9.99441L6.1388 9.52774V13.1664C6.1388 13.5346 6.46215 13.8331 6.86102 13.8331C7.2599 13.8331 7.58325 13.5346 7.58325 13.1664V8.83307V8.83308C7.58114 8.45033 7.34407 8.1018 6.97153 7.93374L6.97152 7.93374Z" fill="#1C1B1F"/>
<path d="M11.5556 7.83338H9.38897C8.9901 7.83338 8.66675 8.13186 8.66675 8.50005C8.66675 8.86824 8.9901 9.16671 9.38897 9.16671H10.9865L9.10008 12.884C8.93064 13.2173 9.08582 13.6142 9.44675 13.7707C9.80801 13.9209 10.2332 13.7793 10.4073 13.4507L12.5545 9.22805C12.7906 8.72059 12.5364 8.13252 11.9866 7.91455C11.8505 7.86057 11.7038 7.83294 11.5556 7.83338V7.83338Z" fill="#1C1B1F"/>
</g>
<defs>
<clipPath id="clip0_931_278">
<rect width="17.3333" height="16" fill="white" transform="translate(0 0.5)"/>
</clipPath>
</defs>
</svg>
