<svg width="16" height="17" viewBox="0 0 16 17" fill="none" xmlns="http://www.w3.org/2000/svg">
<g clip-path="url(#clip0_949_363)">
<path d="M14.3335 2.50001H12.5002C12.4081 2.50001 12.3335 2.42539 12.3335 2.33334V1.16667C12.3335 0.798482 12.035 0.500005 11.6668 0.500005C11.2986 0.500005 11.0002 0.798482 11.0002 1.16667V4.33334C11.0002 4.60948 10.7763 4.83334 10.5002 4.83334C10.224 4.83334 10.0002 4.60948 10.0002 4.33334V2.83334C10.0002 2.64924 9.85092 2.50001 9.66683 2.50001H5.50016C5.40837 2.50001 5.33386 2.42579 5.3335 2.33401V1.16667V1.16667C5.3335 0.798477 5.03502 0.5 4.66683 0.5C4.29864 0.5 4.00016 0.798477 4.00016 1.16667C4.00016 1.16667 4.00016 1.16667 4.00016 1.16668V4.33334C4.00016 4.60949 3.77631 4.83334 3.50016 4.83334C3.22402 4.83334 3.00016 4.60949 3.00016 4.33334V2.83334C3.00016 2.64924 2.85092 2.5 2.66683 2.5H1.66683C0.93045 2.5 0.333496 3.09696 0.333496 3.83334V15.1667C0.333496 15.9031 0.93045 16.5 1.66683 16.5H14.3335C15.0699 16.5 15.6668 15.9031 15.6668 15.1667V3.83334C15.6668 3.09696 15.0699 2.5 14.3335 2.5V2.50001ZM14.3335 14.8333C14.3335 15.0174 14.1843 15.1667 14.0002 15.1667H2.00016C1.81607 15.1667 1.66683 15.0174 1.66683 14.8333V6.83334C1.66683 6.64924 1.81607 6.50001 2.00016 6.50001H14.0002C14.1843 6.50001 14.3335 6.64924 14.3335 6.83334V14.8333Z" fill="white"/>
<path d="M6.43555 7.93374C6.08873 7.76602 5.6764 7.81244 5.37555 8.05307L4.25022 8.95307C3.96266 9.18319 3.9161 9.60285 4.14622 9.89041C4.37634 10.178 4.796 10.2245 5.08355 9.99441L5.66689 9.52774V13.1664C5.66689 13.5346 5.96536 13.8331 6.33355 13.8331C6.70174 13.8331 7.00022 13.5346 7.00022 13.1664V8.83307V8.83308C6.99828 8.45033 6.77945 8.1018 6.43556 7.93374L6.43555 7.93374Z" fill="white"/>
<path d="M10.6667 7.83326H8.66667C8.29848 7.83326 8 8.13173 8 8.49992C8 8.86811 8.29848 9.16659 8.66667 9.16659H10.1413L8.4 12.8839C8.24359 13.2171 8.38684 13.6141 8.72 13.7706C9.05348 13.9208 9.44599 13.7792 9.60667 13.4506L11.5887 9.22792C11.8066 8.72047 11.572 8.1324 11.0645 7.91443C10.9388 7.86045 10.8034 7.83282 10.6667 7.83326V7.83326Z" fill="white"/>
</g>
<defs>
<clipPath id="clip0_949_363">
<rect width="16" height="16" fill="white" transform="translate(0 0.5)"/>
</clipPath>
</defs>
</svg>
