<svg width="14" height="15" viewBox="0 0 14 15" fill="none" xmlns="http://www.w3.org/2000/svg">
<path d="M7 0.538086C5.61553 0.538086 4.26216 0.948629 3.11101 1.7178C1.95987 2.48697 1.06266 3.58022 0.532846 4.8593C0.003033 6.13838 -0.13559 7.54585 0.134506 8.90372C0.404603 10.2616 1.07129 11.5089 2.05026 12.4878C3.02922 13.4668 4.2765 14.1335 5.63437 14.4036C6.99224 14.6737 8.3997 14.5351 9.67879 14.0052C10.9579 13.4754 12.0511 12.5782 12.8203 11.4271C13.5895 10.2759 14 8.92255 14 7.53809C13.998 5.68219 13.2599 3.90288 11.9475 2.59056C10.6352 1.27824 8.8559 0.540093 7 0.538086ZM7 12.7881C5.96165 12.7881 4.94662 12.4802 4.08326 11.9033C3.2199 11.3264 2.547 10.5065 2.14964 9.54717C1.75228 8.58786 1.64831 7.53226 1.85088 6.51386C2.05345 5.49546 2.55347 4.56 3.28769 3.82578C4.02192 3.09155 4.95738 2.59154 5.97578 2.38896C6.99418 2.18639 8.04978 2.29036 9.00909 2.68772C9.9684 3.08508 10.7883 3.75798 11.3652 4.62134C11.9421 5.4847 12.25 6.49973 12.25 7.53809C12.2485 8.93 11.6948 10.2645 10.7106 11.2487C9.72638 12.2329 8.39192 12.7865 7 12.7881Z" fill="#7B7882"/>
<path d="M8.57506 4.7819L7.10333 6.25363C7.07598 6.28098 7.03889 6.29634 7.00021 6.29634C6.96153 6.29634 6.92444 6.28098 6.89709 6.25363L5.42537 4.7819C5.32067 4.67785 5.17906 4.61946 5.03145 4.61946C4.88384 4.61946 4.74223 4.67785 4.63753 4.7819L4.24403 5.17541C4.13998 5.28011 4.08158 5.42172 4.08158 5.56932C4.08158 5.71693 4.13998 5.85854 4.24403 5.96324L5.71575 7.43497C5.7431 7.46232 5.75847 7.49941 5.75847 7.53809C5.75847 7.57676 5.7431 7.61386 5.71575 7.64121L4.24403 9.11293C4.13991 9.21748 4.08142 9.359 4.08134 9.50656C4.08126 9.65411 4.13961 9.79569 4.24361 9.90035L4.63753 10.2943C4.74223 10.3983 4.88384 10.4567 5.03145 10.4567C5.17906 10.4567 5.32067 10.3983 5.42537 10.2943L6.89709 8.82255C6.92444 8.7952 6.96153 8.77983 7.00021 8.77983C7.03889 8.77983 7.07598 8.7952 7.10333 8.82255L8.57506 10.2943C8.67972 10.3983 8.8213 10.4566 8.96885 10.4565C9.1164 10.4565 9.25793 10.398 9.36248 10.2939L9.75598 9.90035C9.8601 9.7958 9.91859 9.65428 9.91867 9.50673C9.91875 9.35917 9.8604 9.21759 9.7564 9.11293L8.28467 7.64121C8.25732 7.61386 8.24196 7.57676 8.24196 7.53809C8.24196 7.49941 8.25732 7.46232 8.28467 7.43497L9.7564 5.96324C9.86044 5.85854 9.91884 5.71693 9.91884 5.56932C9.91884 5.42172 9.86044 5.28011 9.7564 5.17541L9.36248 4.78149C9.25782 4.67748 9.11623 4.61914 8.96868 4.61922C8.82113 4.61929 8.67961 4.67778 8.57506 4.7819Z" fill="#7B7882"/>
</svg>
