<svg width="18" height="18" viewBox="0 0 18 18" fill="none" xmlns="http://www.w3.org/2000/svg">
<path d="M8.66667 0.5C6.95257 0.5 5.27695 1.00829 3.85173 1.9606C2.4265 2.9129 1.31567 4.26645 0.659715 5.85008C0.00375515 7.4337 -0.167874 9.17628 0.166531 10.8574C0.500937 12.5386 1.32636 14.0829 2.53841 15.2949C3.75047 16.507 5.29472 17.3324 6.97589 17.6668C8.65706 18.0012 10.3996 17.8296 11.9833 17.1736C13.5669 16.5177 14.9204 15.4068 15.8727 13.9816C16.825 12.5564 17.3333 10.8808 17.3333 9.16667C17.3309 6.86889 16.417 4.66593 14.7922 3.04115C13.1674 1.41638 10.9644 0.502485 8.66667 0.5ZM8.66667 15.6667C7.38109 15.6667 6.12438 15.2854 5.05546 14.5712C3.98654 13.857 3.15342 12.8418 2.66145 11.6541C2.16948 10.4664 2.04076 9.15946 2.29157 7.89858C2.54237 6.6377 3.16143 5.47951 4.07048 4.57047C4.97952 3.66143 6.13771 3.04237 7.39858 2.79156C8.65946 2.54076 9.96639 2.66948 11.1541 3.16145C12.3418 3.65342 13.357 4.48654 14.0712 5.55546C14.7855 6.62438 15.1667 7.88109 15.1667 9.16667C15.1648 10.89 14.4793 12.5422 13.2608 13.7607C12.0422 14.9793 10.39 15.6648 8.66667 15.6667Z" fill="#1C1B1F"/>
<path d="M10.6167 5.75409L8.79454 7.57622C8.76067 7.61008 8.71475 7.6291 8.66686 7.6291C8.61898 7.6291 8.57305 7.61008 8.53919 7.57622L6.71706 5.75409C6.58743 5.62527 6.4121 5.55296 6.22935 5.55296C6.0466 5.55296 5.87127 5.62527 5.74164 5.75409L5.25445 6.24128C5.12563 6.37091 5.05332 6.54624 5.05332 6.72899C5.05332 6.91174 5.12563 7.08707 5.25445 7.2167L7.07658 9.03883C7.11044 9.07269 7.12946 9.11862 7.12946 9.1665C7.12946 9.21439 7.11044 9.26032 7.07658 9.29418L5.25445 11.1163C5.12554 11.2458 5.05312 11.421 5.05303 11.6037C5.05293 11.7863 5.12516 11.9616 5.25394 12.0912L5.74164 12.5789C5.87127 12.7077 6.0466 12.78 6.22935 12.78C6.4121 12.78 6.58743 12.7077 6.71706 12.5789L8.53919 10.7568C8.57305 10.7229 8.61898 10.7039 8.66686 10.7039C8.71475 10.7039 8.76067 10.7229 8.79454 10.7568L10.6167 12.5789C10.7463 12.7077 10.9215 12.7799 11.1042 12.7798C11.2869 12.7797 11.4621 12.7073 11.5916 12.5784L12.0788 12.0912C12.2077 11.9618 12.2801 11.7866 12.2802 11.6039C12.2803 11.4212 12.2081 11.2459 12.0793 11.1163L10.2571 9.29418C10.2233 9.26032 10.2043 9.21439 10.2043 9.1665C10.2043 9.11862 10.2233 9.07269 10.2571 9.03883L12.0793 7.2167C12.2081 7.08707 12.2804 6.91174 12.2804 6.72899C12.2804 6.54624 12.2081 6.37091 12.0793 6.24128L11.5916 5.75358C11.462 5.6248 11.2867 5.55257 11.104 5.55267C10.9213 5.55276 10.7461 5.62518 10.6167 5.75409Z" fill="#1C1B1F"/>
</svg>
