<svg width="45" height="45" viewBox="0 0 45 45" fill="none" xmlns="http://www.w3.org/2000/svg">
<circle cx="22.5" cy="22.5" r="22.5" fill="#F5DFDF"/>
<g clip-path="url(#clip0_602_6240)">
<path d="M28.9313 19.5H16.4313C16.3208 19.5 16.2148 19.5439 16.1367 19.622C16.0585 19.7002 16.0146 19.8062 16.0146 19.9167V30.3333C16.0146 30.7754 16.1902 31.1993 16.5028 31.5118C16.8154 31.8244 17.2393 32 17.6813 32H27.6813C28.1233 32 28.5473 31.8244 28.8598 31.5118C29.1724 31.1993 29.348 30.7754 29.348 30.3333V19.9167C29.348 19.8062 29.3041 19.7002 29.2259 19.622C29.1478 19.5439 29.0418 19.5 28.9313 19.5ZM21.223 29.0833C21.223 29.2491 21.1571 29.4081 21.0399 29.5253C20.9227 29.6425 20.7637 29.7083 20.598 29.7083C20.4322 29.7083 20.2733 29.6425 20.156 29.5253C20.0388 29.4081 19.973 29.2491 19.973 29.0833V22.8333C19.973 22.6676 20.0388 22.5086 20.156 22.3914C20.2733 22.2742 20.4322 22.2083 20.598 22.2083C20.7637 22.2083 20.9227 22.2742 21.0399 22.3914C21.1571 22.5086 21.223 22.6676 21.223 22.8333V29.0833ZM25.3896 29.0833C25.3896 29.2491 25.3238 29.4081 25.2066 29.5253C25.0894 29.6425 24.9304 29.7083 24.7646 29.7083C24.5989 29.7083 24.4399 29.6425 24.3227 29.5253C24.2055 29.4081 24.1396 29.2491 24.1396 29.0833V22.8333C24.1396 22.6676 24.2055 22.5086 24.3227 22.3914C24.4399 22.2742 24.5989 22.2083 24.7646 22.2083C24.9304 22.2083 25.0894 22.2742 25.2066 22.3914C25.3238 22.5086 25.3896 22.6676 25.3896 22.8333V29.0833Z" fill="#EA6767"/>
<path d="M30.0237 14.1268L26.1378 14.8768C26.1109 14.8819 26.0831 14.8817 26.0562 14.8762C26.0293 14.8706 26.0038 14.8597 25.9811 14.8442C25.9584 14.8287 25.939 14.8089 25.924 14.7859C25.909 14.7629 25.8987 14.7371 25.8937 14.7101L25.6953 13.6876C25.5897 13.1457 25.2733 12.668 24.8156 12.3592C24.358 12.0505 23.7965 11.936 23.2545 12.0409L19.167 12.8334C18.8983 12.8853 18.6425 12.9897 18.4141 13.1405C18.1858 13.2913 17.9894 13.4857 17.8362 13.7124C17.6829 13.9392 17.5759 14.1939 17.5211 14.462C17.4664 14.7301 17.465 15.0064 17.517 15.2751L17.7145 16.2976C17.7198 16.3246 17.7197 16.3524 17.7142 16.3793C17.7086 16.4063 17.6978 16.4318 17.6823 16.4546C17.6668 16.4773 17.6469 16.4967 17.6238 16.5117C17.6007 16.5266 17.5749 16.5369 17.5478 16.5418L13.662 17.2918C13.5545 17.3123 13.452 17.3539 13.3606 17.4141C13.2691 17.4743 13.1904 17.5519 13.129 17.6426C13.0675 17.7332 13.0245 17.835 13.0025 17.9423C12.9804 18.0495 12.9797 18.1601 13.0003 18.2676C13.0483 18.4814 13.1761 18.6689 13.3576 18.7918C13.5391 18.9146 13.7607 18.9635 13.977 18.9284L30.3403 15.7618C30.5574 15.7198 30.7488 15.5933 30.8726 15.4101C30.9964 15.227 31.0423 15.0021 31.0003 14.7851C30.9584 14.5681 30.8319 14.3766 30.6487 14.2528C30.4655 14.129 30.2407 14.0831 30.0237 14.1251V14.1268ZM19.1503 14.9601C19.14 14.9061 19.1404 14.8506 19.1515 14.7968C19.1627 14.743 19.1844 14.6919 19.2154 14.6466C19.2464 14.6012 19.286 14.5624 19.3321 14.5324C19.3781 14.5024 19.4296 14.4818 19.4837 14.4718L23.5745 13.6809C23.6284 13.6707 23.6838 13.6712 23.7375 13.6824C23.7912 13.6936 23.8422 13.7153 23.8875 13.7463C23.9328 13.7773 23.9715 13.8169 24.0015 13.8629C24.0314 13.9089 24.052 13.9603 24.062 14.0143L24.2603 15.0376C24.2706 15.0921 24.2588 15.1484 24.2275 15.1942C24.1963 15.2399 24.1481 15.2714 24.0937 15.2818L19.592 16.1443C19.565 16.1494 19.5373 16.1492 19.5104 16.1437C19.4835 16.1381 19.4579 16.1272 19.4352 16.1117C19.4125 16.0962 19.3931 16.0764 19.3781 16.0534C19.3631 16.0304 19.3528 16.0046 19.3478 15.9776L19.1503 14.9601Z" fill="#EA6767"/>
</g>
<defs>
<clipPath id="clip0_602_6240">
<rect width="20" height="20" fill="white" transform="translate(12 12)"/>
</clipPath>
</defs>
</svg>
