<svg width="18" height="18" viewBox="0 0 18 18" fill="none" xmlns="http://www.w3.org/2000/svg">
<path d="M9.33331 0.361328C7.4185 0.363431 5.58272 1.12502 4.22875 2.47899C2.87477 3.83296 2.11319 5.66874 2.11108 7.58355V9.3891C2.11212 10.148 2.33026 10.8908 2.73978 11.5298C3.14929 12.1688 3.73307 12.6772 4.42219 12.9952C4.74815 13.1464 5.00602 13.4138 5.14544 13.745C5.28486 14.0762 5.29583 14.4474 5.17619 14.7863C4.71036 16.1014 4.51825 16.3513 4.86636 16.7363C4.93398 16.8114 5.01662 16.8715 5.10893 16.9127C5.20124 16.9539 5.30117 16.9752 5.40225 16.9753H6.80553C6.85319 16.9753 6.90039 16.9659 6.94439 16.9476C6.98839 16.9292 7.02833 16.9024 7.0619 16.8685C7.09547 16.8347 7.12201 16.7945 7.13998 16.7504C7.15796 16.7063 7.16702 16.659 7.16664 16.6113V15.1669C7.16664 14.9753 7.24273 14.7916 7.37817 14.6562C7.51362 14.5208 7.69732 14.4447 7.88886 14.4447C8.08041 14.4447 8.26411 14.5208 8.39955 14.6562C8.53499 14.7916 8.61108 14.9753 8.61108 15.1669V16.6113C8.61108 16.7071 8.64913 16.799 8.71685 16.8667C8.78457 16.9344 8.87642 16.9724 8.97219 16.9724H9.69442C9.79019 16.9724 9.88204 16.9344 9.94976 16.8667C10.0175 16.799 10.0555 16.7071 10.0555 16.6113V15.1669C10.0555 14.9753 10.1316 14.7916 10.2671 14.6562C10.4025 14.5208 10.5862 14.4447 10.7778 14.4447C10.9693 14.4447 11.153 14.5208 11.2884 14.6562C11.4239 14.7916 11.5 14.9753 11.5 15.1669V16.6113C11.5 16.7071 11.538 16.799 11.6057 16.8667C11.6735 16.9344 11.7653 16.9724 11.8611 16.9724H13.2673C13.3682 16.9723 13.4679 16.951 13.5601 16.91C13.6523 16.8689 13.7348 16.809 13.8024 16.7341C14.1505 16.3513 13.9606 16.1058 13.4926 14.7841C13.3734 14.4458 13.3844 14.0752 13.5234 13.7446C13.6623 13.4139 13.9194 13.1468 14.2444 12.9952C14.9336 12.6773 15.5174 12.1689 15.9269 11.5299C16.3365 10.8909 16.5546 10.1481 16.5555 9.3891V7.58355C16.554 5.66857 15.7926 3.83246 14.4385 2.47836C13.0844 1.12426 11.2483 0.362858 9.33331 0.361328ZM6.08331 10.4768C5.7262 10.4768 5.37712 10.3709 5.08019 10.1725C4.78327 9.97408 4.55185 9.69209 4.41519 9.36217C4.27853 9.03225 4.24278 8.66921 4.31244 8.31897C4.38211 7.96873 4.55407 7.64701 4.80659 7.3945C5.0591 7.14198 5.38082 6.97002 5.73106 6.90035C6.0813 6.83069 6.44434 6.86644 6.77426 7.0031C7.10418 7.13976 7.38617 7.37118 7.58457 7.6681C7.78297 7.96502 7.88886 8.31411 7.88886 8.67122C7.88886 9.15008 7.69863 9.60933 7.36003 9.94794C7.02142 10.2865 6.56217 10.4768 6.08331 10.4768ZM10.1826 12.4723C10.1502 12.5247 10.1049 12.5679 10.0511 12.5979C9.99722 12.6279 9.9366 12.6435 9.87497 12.6434H8.79164C8.73016 12.6434 8.66971 12.6276 8.61603 12.5977C8.56234 12.5677 8.51719 12.5245 8.48486 12.4722C8.45253 12.4199 8.43409 12.3602 8.43128 12.2988C8.42847 12.2374 8.44139 12.1763 8.46881 12.1213L9.01047 11.0379C9.04374 10.982 9.091 10.9356 9.14759 10.9034C9.20419 10.8712 9.26819 10.8543 9.33331 10.8543C9.39842 10.8543 9.46242 10.8712 9.51902 10.9034C9.57561 10.9356 9.62287 10.982 9.65614 11.0379L10.1978 12.1213C10.2255 12.1762 10.2387 12.2372 10.2361 12.2986C10.2336 12.3601 10.2154 12.4198 10.1834 12.4723H10.1826ZM12.5833 10.4768C12.2262 10.4768 11.8771 10.3709 11.5802 10.1725C11.2833 9.97408 11.0518 9.69209 10.9152 9.36217C10.7785 9.03225 10.7428 8.66921 10.8124 8.31897C10.8821 7.96873 11.0541 7.64701 11.3066 7.3945C11.5591 7.14198 11.8808 6.97002 12.2311 6.90035C12.5813 6.83069 12.9443 6.86644 13.2743 7.0031C13.6042 7.13976 13.8862 7.37118 14.0846 7.6681C14.283 7.96502 14.3889 8.31411 14.3889 8.67122C14.3889 9.15008 14.1986 9.60933 13.86 9.94794C13.5214 10.2865 13.0622 10.4768 12.5833 10.4768Z" fill="#EA6767"/>
</svg>
