<svg width="18" height="24" viewBox="0 0 18 24" fill="none" xmlns="http://www.w3.org/2000/svg">
<g filter="url(#filter0_d_591_3551)">
<path d="M6.72424 10.7672C6.73854 10.7345 6.75352 10.6991 6.76985 10.6705C6.95777 10.3022 7.24381 9.99308 7.59639 9.77715C7.94897 9.56123 8.35437 9.44696 8.76781 9.44696C9.18125 9.44696 9.58665 9.56123 9.93923 9.77715C10.2918 9.99308 10.5779 10.3022 10.7658 10.6705C10.7814 10.7025 10.7971 10.7352 10.8114 10.7679L11.3709 12.0667C11.3841 12.0973 11.406 12.1233 11.4338 12.1416C11.4616 12.1598 11.4942 12.1696 11.5275 12.1695H11.6834C11.721 12.1697 11.7576 12.1573 11.7874 12.1344C11.8173 12.1115 11.8386 12.0793 11.8481 12.0429L13.3226 6.43158C13.3493 6.33144 13.3628 6.22822 13.3628 6.12457V5.19265C13.3628 5.03603 13.3319 4.88094 13.272 4.73624C13.212 4.59154 13.1242 4.46007 13.0134 4.34932C12.9027 4.23857 12.7712 4.15072 12.6265 4.09078C12.4818 4.03085 12.3267 4 12.1701 4H5.36278C5.04694 4.00072 4.74428 4.12669 4.52121 4.35028C4.29813 4.57387 4.17285 4.87681 4.17285 5.19265V6.12457C4.17302 6.22682 4.18629 6.32862 4.21233 6.4275L5.69021 12.0429C5.69973 12.0793 5.72108 12.1115 5.7509 12.1344C5.78073 12.1573 5.81733 12.1697 5.85495 12.1695H6.00539C6.03851 12.1696 6.07092 12.1599 6.09862 12.1418C6.12633 12.1236 6.14811 12.0978 6.16128 12.0674L6.72424 10.7672Z" fill="#3737DB"/>
</g>
<g filter="url(#filter1_d_591_3551)">
<path d="M12.3332 13.1903H10.854C10.8208 13.1904 10.7883 13.1807 10.7606 13.1625C10.7328 13.1442 10.7111 13.1181 10.6981 13.0875L9.8717 11.172C9.77355 10.9615 9.61738 10.7835 9.42156 10.6588C9.22573 10.534 8.99837 10.4678 8.76619 10.4678C8.53401 10.4678 8.30665 10.534 8.11082 10.6588C7.91499 10.7835 7.75883 10.9615 7.66067 11.172L6.83358 13.0889C6.82022 13.1193 6.7983 13.1451 6.7705 13.1633C6.74269 13.1814 6.71021 13.191 6.67701 13.191H5.19778C4.96151 13.1882 4.72978 13.256 4.53232 13.3858C4.33486 13.5156 4.18068 13.7014 4.08954 13.9194C3.99973 14.1467 3.98086 14.396 4.03541 14.6342C4.08997 14.8725 4.2154 15.0887 4.39519 15.2543L5.70356 16.4197C5.73051 16.4435 5.74919 16.4753 5.7569 16.5104C5.76461 16.5455 5.76095 16.5822 5.74645 16.6151L5.01262 18.3054C4.90963 18.537 4.88322 18.7954 4.93721 19.0431C4.9912 19.2908 5.12278 19.5148 5.31282 19.6825C5.50298 19.8544 5.74248 19.962 5.99728 19.99C6.25208 20.0179 6.50922 19.9649 6.73215 19.8384L8.68246 18.739C8.70802 18.7246 8.73686 18.7171 8.76619 18.7171C8.79552 18.7171 8.82435 18.7246 8.84992 18.739L10.8009 19.8377C11.0232 19.9663 11.2807 20.0206 11.536 19.9926C11.7913 19.9647 12.031 19.8561 12.2202 19.6825C12.4105 19.5149 12.5422 19.2909 12.5962 19.0432C12.6502 18.7954 12.6236 18.537 12.5204 18.3054L11.7859 16.6144C11.7716 16.5815 11.7681 16.5449 11.7758 16.5098C11.7835 16.4747 11.802 16.443 11.8288 16.4191L13.1624 15.2305C13.3364 15.0672 13.4568 14.8551 13.5079 14.6221C13.559 14.389 13.5383 14.1459 13.4486 13.9249C13.3588 13.7038 13.2042 13.5151 13.0051 13.3836C12.806 13.2522 12.5718 13.184 12.3332 13.1883V13.1903Z" fill="#3737DB"/>
</g>
<defs>
<filter id="filter0_d_591_3551" x="0.172852" y="0" width="17.1899" height="16.1694" filterUnits="userSpaceOnUse" color-interpolation-filters="sRGB">
<feFlood flood-opacity="0" result="BackgroundImageFix"/>
<feColorMatrix in="SourceAlpha" type="matrix" values="0 0 0 0 0 0 0 0 0 0 0 0 0 0 0 0 0 0 127 0" result="hardAlpha"/>
<feOffset/>
<feGaussianBlur stdDeviation="2"/>
<feComposite in2="hardAlpha" operator="out"/>
<feColorMatrix type="matrix" values="0 0 0 0 0.214583 0 0 0 0 0.214583 0 0 0 0 0.858333 0 0 0 0.2 0"/>
<feBlend mode="normal" in2="BackgroundImageFix" result="effect1_dropShadow_591_3551"/>
<feBlend mode="normal" in="SourceGraphic" in2="effect1_dropShadow_591_3551" result="shape"/>
</filter>
<filter id="filter1_d_591_3551" x="0.00488281" y="6.46777" width="17.5305" height="17.5322" filterUnits="userSpaceOnUse" color-interpolation-filters="sRGB">
<feFlood flood-opacity="0" result="BackgroundImageFix"/>
<feColorMatrix in="SourceAlpha" type="matrix" values="0 0 0 0 0 0 0 0 0 0 0 0 0 0 0 0 0 0 127 0" result="hardAlpha"/>
<feOffset/>
<feGaussianBlur stdDeviation="2"/>
<feComposite in2="hardAlpha" operator="out"/>
<feColorMatrix type="matrix" values="0 0 0 0 0.214583 0 0 0 0 0.214583 0 0 0 0 0.858333 0 0 0 0.2 0"/>
<feBlend mode="normal" in2="BackgroundImageFix" result="effect1_dropShadow_591_3551"/>
<feBlend mode="normal" in="SourceGraphic" in2="effect1_dropShadow_591_3551" result="shape"/>
</filter>
</defs>
</svg>
