<svg width="18" height="17" viewBox="0 0 18 17" fill="none" xmlns="http://www.w3.org/2000/svg">
<g clip-path="url(#clip0_667_337)">
<path d="M8.99983 0.686524C6.93658 0.685958 4.9408 1.36487 3.37136 2.60118C1.80192 3.83749 0.761778 5.55009 0.437978 7.43102C0.114178 9.31196 0.52796 11.2378 1.60492 12.8623C2.68188 14.4868 4.35136 15.7034 6.31316 16.2932H6.5226C6.62479 16.299 6.72715 16.2848 6.82291 16.2513C6.91866 16.2179 7.00562 16.166 7.07801 16.0992C7.15041 16.0324 7.20658 15.9521 7.24281 15.8637C7.27904 15.7753 7.2945 15.6808 7.28816 15.5865V15.4465C7.28816 15.3332 7.28816 15.1799 7.28816 14.7199C7.28107 14.6762 7.26465 14.6342 7.23986 14.5965C7.21506 14.5587 7.18238 14.5259 7.14372 14.4999C7.10176 14.4685 7.05274 14.4463 7.00025 14.4347C6.94775 14.4232 6.89313 14.4227 6.84038 14.4332C4.90483 14.8199 4.49316 13.6999 4.46427 13.6265C4.2219 13.0339 3.78829 12.5243 3.22205 12.1665C3.18812 12.1394 3.1519 12.1149 3.11372 12.0932C3.19764 12.0515 3.29364 12.0352 3.38816 12.0465C3.56968 12.0698 3.74158 12.1361 3.88712 12.2389C4.03267 12.3417 4.14691 12.4775 4.21872 12.6332C4.49811 13.0822 4.9553 13.4138 5.4941 13.558C6.03289 13.7022 6.61129 13.6479 7.10761 13.4065C7.16086 13.385 7.20772 13.352 7.24418 13.3102C7.28064 13.2684 7.30564 13.2191 7.31705 13.1665C7.3447 12.8582 7.48769 12.5683 7.72149 12.3465C7.7734 12.304 7.81092 12.2485 7.82956 12.1868C7.8482 12.1251 7.84717 12.0597 7.8266 11.9985C7.80602 11.9373 7.76677 11.8829 7.71354 11.8417C7.66032 11.8006 7.59538 11.7745 7.52649 11.7665C5.81483 11.5865 4.06705 11.0332 4.06705 8.30652C4.05262 7.62178 4.32416 6.95816 4.82538 6.45319C4.87155 6.40612 4.90219 6.34787 4.9137 6.28527C4.92522 6.22268 4.91713 6.15835 4.89038 6.09986C4.68966 5.58221 4.69222 5.01594 4.8976 4.49986C5.56481 4.60903 6.19106 4.87283 6.71761 5.26652C6.76111 5.29487 6.81097 5.31378 6.86349 5.32186C6.91601 5.32994 6.96983 5.32698 7.02094 5.31319C7.66609 5.15165 8.33137 5.06872 8.99983 5.06652C9.67079 5.06704 10.3387 5.14999 10.9859 5.31319C11.036 5.32594 11.0885 5.32836 11.1396 5.3203C11.1908 5.31223 11.2394 5.29387 11.282 5.26652C11.8094 4.87407 12.4353 4.61042 13.102 4.49986C13.2987 5.01318 13.2987 5.5732 13.102 6.08652C13.0753 6.14502 13.0672 6.20935 13.0787 6.27194C13.0902 6.33453 13.1209 6.39279 13.167 6.43986C13.6631 6.93977 13.9342 7.59532 13.9254 8.27319C13.9254 10.9999 12.1704 11.5465 10.4515 11.7265C10.381 11.7333 10.3142 11.7591 10.2595 11.8007C10.2047 11.8422 10.1645 11.8977 10.1437 11.9603C10.1229 12.0228 10.1225 12.0897 10.1426 12.1524C10.1626 12.2152 10.2022 12.2711 10.2565 12.3132C10.4165 12.4656 10.5387 12.6483 10.6148 12.8485C10.6908 13.0488 10.7189 13.2619 10.6971 13.4732V15.5932C10.6935 15.6974 10.7149 15.8011 10.7599 15.8967C10.8048 15.9924 10.8722 16.0777 10.957 16.1465C11.0651 16.2212 11.1907 16.2716 11.3236 16.2936C11.4565 16.3156 11.5931 16.3086 11.7226 16.2732C13.6712 15.6714 15.3249 14.4502 16.3884 12.8273C17.452 11.2044 17.8563 9.28548 17.5292 7.41294C17.202 5.54041 16.1648 3.83606 14.6025 2.60402C13.0403 1.37198 11.0546 0.692394 8.99983 0.686524Z" fill="#1C1B1F"/>
</g>
<defs>
<clipPath id="clip0_667_337">
<rect width="17.3333" height="16" fill="white" transform="translate(0.333252 0.5)"/>
</clipPath>
</defs>
</svg>
