<svg width="18" height="17" viewBox="0 0 18 17" fill="none" xmlns="http://www.w3.org/2000/svg">
<path d="M16.8293 3.22649H16.8293C15.6299 0.763482 12.7641 -0.207886 10.4284 1.05688C10.0082 1.28439 9.62259 1.57665 9.28413 1.92404L8.66728 2.5189L8.06994 1.94537C6.99137 0.814278 5.46125 0.301974 3.96147 0.569798C2.47039 0.814947 1.18326 1.80405 0.505251 3.22573L0.50525 3.22573C-0.411432 5.12004 -0.057724 7.42238 1.37924 8.91462L8.14939 16.2693C8.42746 16.5709 8.88476 16.5777 9.17078 16.2844C9.17564 16.2795 9.18044 16.2744 9.18517 16.2693L15.9459 8.92833C17.3888 7.43463 17.7463 5.12674 16.8293 3.22649L16.8293 3.22649Z" fill="#8E8B96"/>
</svg>
