<svg width="10" height="17" viewBox="0 0 10 17" fill="none" xmlns="http://www.w3.org/2000/svg">
<path d="M8.46941 6.98975C8.20313 6.98975 7.98727 6.76589 7.98727 6.48975C7.98727 6.2136 8.20313 5.98975 8.46941 5.98975H9.59441C9.68317 5.98975 9.75512 5.91513 9.75512 5.82308V4.48975C9.75512 4.3977 9.68317 4.32308 9.59441 4.32308H8.46941C8.20313 4.32308 7.98727 4.09922 7.98727 3.82308C7.98727 3.54694 8.20313 3.32308 8.46941 3.32308H9.45362C9.54238 3.3233 9.61451 3.24886 9.61472 3.15681C9.61476 3.14042 9.61246 3.12411 9.60791 3.10841C9.159 1.55601 7.78224 0.492026 6.21941 0.489746H4.29084V0.489746C2.72802 0.492027 1.35125 1.55601 0.902341 3.10841C0.876778 3.19656 0.924961 3.28951 1.00996 3.31602C1.0251 3.32074 1.04082 3.32312 1.05663 3.32308H4.61227C4.87855 3.32308 5.09441 3.54694 5.09441 3.82308C5.09441 4.09922 4.87855 4.32308 4.61227 4.32308H0.915841C0.827081 4.32308 0.755127 4.3977 0.755127 4.48975V5.82308C0.755127 5.91513 0.827081 5.98975 0.915841 5.98975H4.61227C4.87855 5.98975 5.09441 6.2136 5.09441 6.48975C5.09441 6.76589 4.87855 6.98975 4.61227 6.98975H0.915841C0.827081 6.98975 0.755127 7.06437 0.755127 7.15641V8.82308V8.82301C0.757476 10.6446 2.04726 12.1891 3.78549 12.4517C3.87332 12.465 3.95492 12.402 3.96775 12.3109C3.96874 12.3039 3.96929 12.2968 3.96941 12.2897V10.1564V10.1564C3.96941 9.23594 4.68896 8.48975 5.57656 8.48975C6.46416 8.48975 7.1837 9.23594 7.1837 10.1564V12.1231C7.18401 12.2155 7.25651 12.2901 7.34562 12.2898C7.3636 12.2898 7.38145 12.2866 7.39841 12.2804L7.39841 12.2804C8.80971 11.7604 9.75323 10.3763 9.75513 8.82308V7.15641C9.75513 7.06437 9.68317 6.98975 9.59441 6.98975H8.46941Z" fill="#3737DB"/>
<path d="M6.2195 10.1564C6.2195 9.78822 5.93168 9.48975 5.57664 9.48975C5.2216 9.48975 4.93378 9.78822 4.93378 10.1564V13.1024V13.1024C4.9336 13.1772 4.88557 13.2428 4.81614 13.2631H4.81614C3.70668 13.5822 2.88241 14.5488 2.71271 15.7297C2.66301 16.0943 2.90769 16.4316 3.25924 16.4832C3.28902 16.4875 3.31906 16.4897 3.34914 16.4897H7.8035C8.15854 16.4902 8.44668 16.192 8.44708 15.8238C8.44711 15.7919 8.44494 15.76 8.44057 15.7284V15.7284C8.2716 14.5473 7.44736 13.5805 6.33778 13.2617C6.26786 13.2417 6.21946 13.1757 6.21949 13.1004L6.2195 10.1564Z" fill="#3737DB"/>
</svg>
