<svg width="18" height="18" viewBox="0 0 18 18" fill="none" xmlns="http://www.w3.org/2000/svg">
<g clip-path="url(#clip0_591_4191)">
<path d="M0.375 9C0.375 10.7059 0.880847 12.3734 1.82857 13.7918C2.7763 15.2102 4.12334 16.3157 5.69936 16.9685C7.27537 17.6213 9.00957 17.7921 10.6827 17.4593C12.3557 17.1265 13.8926 16.305 15.0988 15.0988C16.305 13.8926 17.1265 12.3557 17.4593 10.6827C17.7921 9.00957 17.6213 7.27537 16.9685 5.69936C16.3157 4.12334 15.2102 2.7763 13.7918 1.82857C12.3734 0.880847 10.7059 0.375 9 0.375C6.7133 0.377581 4.521 1.28711 2.90405 2.90405C1.28711 4.521 0.377581 6.7133 0.375 9ZM4.125 8.625C4.125 8.42609 4.20402 8.23532 4.34467 8.09467C4.48532 7.95402 4.67609 7.875 4.875 7.875H7.6875C7.73723 7.875 7.78492 7.85525 7.82008 7.82008C7.85525 7.78492 7.875 7.73723 7.875 7.6875V4.875C7.875 4.67609 7.95402 4.48532 8.09467 4.34467C8.23532 4.20402 8.42609 4.125 8.625 4.125H9.375C9.57391 4.125 9.76468 4.20402 9.90533 4.34467C10.046 4.48532 10.125 4.67609 10.125 4.875V7.6875C10.125 7.73723 10.1448 7.78492 10.1799 7.82008C10.2151 7.85525 10.2628 7.875 10.3125 7.875H13.125C13.3239 7.875 13.5147 7.95402 13.6553 8.09467C13.796 8.23532 13.875 8.42609 13.875 8.625V9.375C13.875 9.57391 13.796 9.76468 13.6553 9.90533C13.5147 10.046 13.3239 10.125 13.125 10.125H10.3125C10.2628 10.125 10.2151 10.1448 10.1799 10.1799C10.1448 10.2151 10.125 10.2628 10.125 10.3125V13.125C10.125 13.3239 10.046 13.5147 9.90533 13.6553C9.76468 13.796 9.57391 13.875 9.375 13.875H8.625C8.42609 13.875 8.23532 13.796 8.09467 13.6553C7.95402 13.5147 7.875 13.3239 7.875 13.125V10.3125C7.875 10.2628 7.85525 10.2151 7.82008 10.1799C7.78492 10.1448 7.73723 10.125 7.6875 10.125H4.875C4.67609 10.125 4.48532 10.046 4.34467 9.90533C4.20402 9.76468 4.125 9.57391 4.125 9.375V8.625Z" fill="#2573C1"/>
</g>
<defs>
<clipPath id="clip0_591_4191">
<rect width="18" height="18" fill="white"/>
</clipPath>
</defs>
</svg>
