<svg width="16" height="16" viewBox="0 0 16 16" fill="none" xmlns="http://www.w3.org/2000/svg">
<path d="M15.5467 4.29321C15.6883 4.17553 15.7076 3.96537 15.5899 3.8238C15.5444 3.76901 15.4825 3.73025 15.4133 3.71321L14.8867 3.57988C14.7081 3.53517 14.5996 3.35415 14.6443 3.17557C14.6497 3.15409 14.6572 3.1332 14.6667 3.11321L14.96 2.51988C15.0399 2.35404 14.9703 2.1548 14.8045 2.07488C14.7325 2.0402 14.6505 2.03251 14.5733 2.05321L13.24 2.42654C13.1393 2.45592 13.0306 2.43616 12.9467 2.37321V2.37321C12.3697 1.94047 11.6679 1.70654 10.9467 1.70654C9.10573 1.70654 7.61334 3.19893 7.61334 5.03988V5.27988V5.27988C7.61396 5.36465 7.55084 5.43637 7.46668 5.44654C5.59334 5.66654 3.80001 4.71321 1.86668 2.48654C1.78105 2.39211 1.64979 2.3535 1.52668 2.38654C1.41586 2.43748 1.34171 2.54487 1.33334 2.66654L1.33334 2.66654C1.06631 3.76344 1.17428 4.91816 1.64001 5.94654C1.68152 6.0287 1.64856 6.12895 1.5664 6.17046C1.53563 6.18601 1.50078 6.19163 1.46668 6.18654L0.72001 6.03988C0.53825 6.01065 0.367214 6.13431 0.337991 6.31607C0.331743 6.35493 0.332427 6.39459 0.340011 6.43321L0.34001 6.43321C0.456603 7.46958 1.03794 8.39678 1.92001 8.95321C2.00285 8.99333 2.03748 9.09301 1.99736 9.17586C1.98102 9.20961 1.95376 9.23686 1.92001 9.25321L1.56668 9.39321C1.3958 9.46171 1.31282 9.65577 1.38132 9.82664C1.38494 9.83567 1.38895 9.84453 1.39334 9.85321C1.78997 10.7211 2.5873 11.339 3.52668 11.5065C3.6132 11.5379 3.65789 11.6335 3.62648 11.7201C3.60964 11.7665 3.57308 11.803 3.52668 11.8199H3.52668C2.62025 12.1948 1.64752 12.383 0.666677 12.3732C0.482582 12.3364 0.303495 12.4558 0.266677 12.6399C0.229858 12.824 0.349249 13.0031 0.533343 13.0399H0.533342C2.2317 13.8454 4.0808 14.2838 5.96001 14.3265C7.61298 14.3518 9.23653 13.8879 10.6267 12.9932L10.6267 12.9932C12.9492 11.4429 14.3408 8.8323 14.3333 6.03988V5.45988V5.45988C14.3342 5.3619 14.3781 5.26925 14.4533 5.20654L15.5467 4.29321Z" fill="#BEBCC3"/>
</svg>
