<svg width="18" height="18" viewBox="0 0 18 18" fill="none" xmlns="http://www.w3.org/2000/svg">
<g clip-path="url(#clip0_591_3930)">
<path d="M3.375 8.9996C3.3747 8.75428 3.42672 8.51173 3.5276 8.28811C3.62848 8.0645 3.77589 7.86497 3.96 7.70285L12.324 0.344601C12.6012 0.112033 12.9583 -0.00286681 13.3191 0.0244705C13.6799 0.0518077 14.0156 0.219212 14.2546 0.490888C14.4935 0.762564 14.6167 1.11695 14.5978 1.47826C14.5788 1.83958 14.4193 2.17914 14.1533 2.42435L6.83925 8.8586C6.81918 8.8762 6.80309 8.89788 6.79207 8.9222C6.78105 8.94651 6.77534 8.9729 6.77534 8.9996C6.77534 9.0263 6.78105 9.05269 6.79207 9.077C6.80309 9.10132 6.81918 9.123 6.83925 9.1406L14.1533 15.5749C14.2947 15.6935 14.411 15.8393 14.4953 16.0035C14.5796 16.1678 14.6302 16.3472 14.6441 16.5313C14.6581 16.7154 14.6351 16.9005 14.5765 17.0756C14.5179 17.2506 14.4249 17.4123 14.303 17.5509C14.181 17.6895 14.0326 17.8024 13.8665 17.8828C13.7003 17.9633 13.5197 18.0097 13.3353 18.0194C13.151 18.029 12.9665 18.0017 12.7928 17.9391C12.6192 17.8765 12.4598 17.7797 12.324 17.6546L3.963 10.2986C3.77844 10.1362 3.63055 9.93637 3.52917 9.7124C3.42779 9.48843 3.37523 9.24545 3.375 8.9996Z" fill="#7B7882"/>
</g>
<defs>
<clipPath id="clip0_591_3930">
<rect width="18" height="18" fill="white"/>
</clipPath>
</defs>
</svg>
