<svg width="24" height="24" viewBox="0 0 24 24" fill="none" xmlns="http://www.w3.org/2000/svg">
<g clip-path="url(#clip0_602_5687)">
<path d="M14.3 12.1793C14.2767 12.1561 14.2582 12.1285 14.2456 12.0981C14.233 12.0677 14.2266 12.0352 14.2266 12.0023C14.2266 11.9694 14.233 11.9368 14.2456 11.9065C14.2582 11.8761 14.2767 11.8485 14.3 11.8253L23.563 2.56329C23.8443 2.28163 24.0021 1.89977 24.0018 1.50173C24.0016 1.10368 23.8432 0.72205 23.5615 0.440788C23.2798 0.159526 22.898 0.0016722 22.4999 0.0019535C22.1019 0.0022348 21.7203 0.160628 21.439 0.442288L12.177 9.70029C12.1538 9.72357 12.1262 9.74204 12.0958 9.75464C12.0654 9.76725 12.0329 9.77374 12 9.77374C11.9671 9.77374 11.9346 9.76725 11.9042 9.75464C11.8738 9.74204 11.8462 9.72357 11.823 9.70029L2.561 0.442288C2.42173 0.302955 2.25639 0.192418 2.0744 0.116986C1.89242 0.0415549 1.69735 0.00270701 1.50035 0.00266058C1.1025 0.00256682 0.720896 0.160526 0.439501 0.441788C0.158107 0.72305 -3.20751e-05 1.10458 -0.000125843 1.50243C-0.000219611 1.90029 0.157739 2.28189 0.439001 2.56329L9.7 11.8253C9.72328 11.8485 9.74175 11.8761 9.75436 11.9065C9.76696 11.9368 9.77345 11.9694 9.77345 12.0023C9.77345 12.0352 9.76696 12.0677 9.75436 12.0981C9.74175 12.1285 9.72328 12.1561 9.7 12.1793L0.439001 21.4423C0.299734 21.5816 0.189275 21.747 0.113929 21.929C0.0385837 22.1111 -0.000172273 22.3061 -0.000125843 22.5031C-3.20751e-05 22.901 0.158107 23.2825 0.439501 23.5638C0.578834 23.7031 0.744233 23.8135 0.926254 23.8889C1.10828 23.9642 1.30336 24.003 1.50035 24.0029C1.89821 24.0028 2.27974 23.8447 2.561 23.5633L11.823 14.3003C11.8462 14.277 11.8738 14.2585 11.9042 14.2459C11.9346 14.2333 11.9671 14.2268 12 14.2268C12.0329 14.2268 12.0654 14.2333 12.0958 14.2459C12.1262 14.2585 12.1538 14.277 12.177 14.3003L21.439 23.5633C21.7203 23.8447 22.1018 24.0028 22.4996 24.0029C22.8975 24.003 23.2791 23.845 23.5605 23.5638C23.8419 23.2825 24 22.901 24.0001 22.5031C24.0002 22.1053 23.8423 21.7237 23.561 21.4423L14.3 12.1793Z" fill="#424049"/>
</g>
<defs>
<clipPath id="clip0_602_5687">
<rect width="24" height="24" fill="white"/>
</clipPath>
</defs>
</svg>
