<svg width="24" height="24" viewBox="0 0 24 24" fill="none" xmlns="http://www.w3.org/2000/svg">
<g clip-path="url(#clip0_591_4171)">
<path d="M23.9998 10.4126C23.998 9.63484 23.8403 8.86534 23.5359 8.1496C23.2316 7.43387 22.7868 6.78644 22.2278 6.2456C21.293 5.3399 20.0769 4.78069 18.7808 4.6606C18.7418 4.65704 18.7041 4.64432 18.671 4.62347C18.6378 4.60262 18.61 4.57422 18.5898 4.5406C17.7998 3.21925 16.631 2.16567 15.2351 1.51646C13.8391 0.867236 12.2804 0.652308 10.7608 0.899531C9.24128 1.14675 7.83103 1.84473 6.71288 2.90298C5.59473 3.96123 4.82025 5.33095 4.48982 6.8346C4.47888 6.88809 4.4508 6.93655 4.40984 6.97264C4.36887 7.00874 4.31726 7.03049 4.26282 7.0346C3.10578 7.11724 2.02293 7.6349 1.23205 8.48348C0.441173 9.33206 0.00091541 10.4486 -0.000180715 11.6086C-0.0247353 12.1998 0.0722901 12.7897 0.284891 13.3418C0.497492 13.8939 0.821144 14.3966 1.23582 14.8186C2.23206 15.6979 3.51209 16.1883 4.84082 16.1996C5.10604 16.1956 5.35881 16.0865 5.54353 15.8961C5.72826 15.7058 5.8298 15.4498 5.82582 15.1846C5.82184 14.9194 5.71267 14.6666 5.52232 14.4819C5.33197 14.2972 5.07604 14.1956 4.81082 14.1996C4.01379 14.205 3.24192 13.9207 2.63882 13.3996C2.41462 13.1612 2.24213 12.8791 2.13216 12.5709C2.0222 12.2627 1.97714 11.9351 1.99982 11.6086C1.99866 11.2237 2.08375 10.8435 2.24884 10.4958C2.41393 10.1482 2.65483 9.84193 2.95382 9.5996C3.25331 9.35651 3.60314 9.18311 3.97795 9.09196C4.35275 9.00081 4.74314 8.9942 5.12082 9.0726C5.26121 9.10153 5.40619 9.09994 5.54592 9.06794C5.68564 9.03593 5.81686 8.97426 5.93066 8.88711C6.04447 8.79995 6.1382 8.68935 6.20552 8.56279C6.27284 8.43623 6.31216 8.29668 6.32082 8.1536C6.39527 6.89222 6.88776 5.69158 7.72052 4.74126C8.55329 3.79093 9.67887 3.14506 10.9196 2.90564C12.1602 2.66622 13.4453 2.84688 14.5719 3.4191C15.6985 3.99133 16.6024 4.9225 17.1408 6.0656C17.2206 6.24542 17.3535 6.39647 17.5218 6.49839C17.6901 6.60031 17.8855 6.6482 18.0818 6.6356C18.589 6.61216 19.0957 6.69338 19.5702 6.87419C20.0446 7.05501 20.4768 7.33155 20.8398 7.6866C21.2081 8.03846 21.5008 8.4616 21.7003 8.93026C21.8997 9.39892 22.0016 9.90328 21.9998 10.4126C21.9931 11.3562 21.6386 12.2643 21.0044 12.963C20.3701 13.6616 19.5004 14.1019 18.5618 14.1996C18.3091 14.2317 18.0781 14.3591 17.9161 14.5558C17.7541 14.7524 17.6733 15.0035 17.6901 15.2577C17.707 15.512 17.8202 15.7502 18.0067 15.9237C18.1933 16.0973 18.439 16.1931 18.6938 16.1916C18.7376 16.1916 18.7814 16.1886 18.8248 16.1826C20.2466 16.0269 21.5609 15.3521 22.5158 14.2873C23.4708 13.2226 23.9992 11.8429 23.9998 10.4126Z" fill="#BEBCC3"/>
<path d="M12.7069 8.98908C12.5194 8.8016 12.2651 8.69629 11.9999 8.69629C11.7347 8.69629 11.4804 8.8016 11.2929 8.98908L7.79291 12.4891C7.65172 12.6287 7.5553 12.8072 7.51594 13.0019C7.47657 13.1965 7.49605 13.3984 7.57189 13.582C7.64772 13.7655 7.77648 13.9223 7.94175 14.0324C8.10703 14.1425 8.30133 14.2008 8.49991 14.2001H10.2499C10.2828 14.1999 10.3153 14.2063 10.3457 14.2188C10.3761 14.2314 10.4037 14.2498 10.427 14.273C10.4502 14.2962 10.4686 14.3239 10.4811 14.3542C10.4937 14.3846 10.5 14.4172 10.4999 14.4501V21.7001C10.4999 22.0979 10.6579 22.4794 10.9392 22.7607C11.2206 23.042 11.6021 23.2001 11.9999 23.2001C12.3977 23.2001 12.7793 23.042 13.0606 22.7607C13.3419 22.4794 13.4999 22.0979 13.4999 21.7001V14.4501C13.4998 14.4172 13.5062 14.3846 13.5187 14.3542C13.5312 14.3239 13.5496 14.2962 13.5728 14.273C13.5961 14.2498 13.6237 14.2314 13.6541 14.2188C13.6845 14.2063 13.717 14.1999 13.7499 14.2001H15.4999C15.6977 14.2 15.891 14.1414 16.0554 14.0315C16.2198 13.9216 16.3479 13.7654 16.4236 13.5827C16.4993 13.4 16.5191 13.199 16.4805 13.005C16.4419 12.8111 16.3467 12.6329 16.2069 12.4931L12.7069 8.98908Z" fill="#BEBCC3"/>
</g>
<defs>
<clipPath id="clip0_591_4171">
<rect width="24" height="24" fill="white"/>
</clipPath>
</defs>
</svg>
