<svg width="16" height="16" viewBox="0 0 16 16" fill="none" xmlns="http://www.w3.org/2000/svg">
<g clip-path="url(#clip0_591_4030)">
<path d="M16 8.00017V7.99951C16 3.58123 12.4183 -0.000488281 8 -0.000488281C6.66796 -0.000488281 5.35701 0.332119 4.18609 0.967152H4.15275L4.15275 0.967152C1.59523 2.38465 0.00602756 5.07611 8.93112e-07 8.00015L9.49378e-07 8.00004C-0.000898691 9.84283 0.637608 11.6288 1.80659 13.0534H1.80659C4.60323 16.4739 9.64326 16.9797 13.0638 14.1831C14.9193 12.666 15.9969 10.3969 16 8.00016L16 8.00017ZM13.38 4.08017C14.1698 5.15175 14.6182 6.43654 14.6667 7.76684C14.08 7.70684 13.4533 7.67351 12.92 7.67351C11.9877 7.6772 11.0576 7.76197 10.14 7.92684C9.96001 7.46684 9.76667 7.01351 9.54667 6.59351C10.939 5.94503 12.2302 5.09848 13.38 4.08017V4.08017ZM12.4933 3.09351V3.09351C11.4095 4.03851 10.1919 4.81805 8.88 5.40684C8.03452 4.02963 6.98477 2.78881 5.76667 1.72684C8.08193 0.880133 10.6761 1.39433 12.4933 3.06017V3.09351ZM4.45333 2.36684C5.69366 3.36494 6.76322 4.55833 7.62 5.90017H7.62C6.0992 6.41222 4.50468 6.67121 2.9 6.66684C2.42667 6.66684 1.95333 6.66684 1.48 6.59351L1.48 6.59351C1.86254 4.84216 2.93427 3.31867 4.45333 2.36684L4.45333 2.36684ZM1.33333 7.94684C1.85333 8.00017 2.37333 8.03351 2.89333 8.03351H2.89333C4.73223 8.03115 6.55689 7.71088 8.28667 7.08684C8.47778 7.46017 8.65111 7.84017 8.80667 8.22684H8.80667C6.44119 8.85373 4.25295 10.0197 2.41333 11.6335C1.69574 10.5389 1.31981 9.25563 1.33333 7.94684L1.33333 7.94684ZM3.24667 12.6668H3.24667C4.96667 11.1453 7.0229 10.0532 9.24667 9.48017C9.66305 10.8618 9.87419 12.2971 9.87333 13.7402C9.87333 13.9602 9.87333 14.1802 9.87333 14.4068H9.87333C7.51271 15.1023 4.96111 14.4323 3.24667 12.6668L3.24667 12.6668ZM11.2467 13.8402C11.2467 13.8402 11.2467 13.7735 11.2467 13.7402C11.2419 12.205 11.0174 10.6784 10.58 9.20684C11.3512 9.07837 12.1315 9.01149 12.9133 9.00684C13.4267 9.00684 14.02 9.04017 14.5733 9.10017C14.2369 11.1108 12.9991 12.857 11.2133 13.8402L11.2467 13.8402Z" fill="#BEBCC3"/>
</g>
<defs>
<clipPath id="clip0_591_4030">
<rect width="16" height="16" fill="white"/>
</clipPath>
</defs>
</svg>
