<svg width="18" height="17" viewBox="0 0 18 17" fill="none" xmlns="http://www.w3.org/2000/svg">
<mask id="mask0_667_460" style="mask-type:luminance" maskUnits="userSpaceOnUse" x="0" y="0" width="18" height="17">
<path d="M17.6666 0.5H0.333252V16.5H17.6666V0.5Z" fill="white"/>
</mask>
<g mask="url(#mask0_667_460)">
<path d="M17.32 8.6823C17.32 8.11502 17.2649 7.56958 17.1624 7.0459H9V10.1405H13.6642C13.4633 11.1405 12.8528 11.9877 11.9349 12.555V14.5623H14.7358C16.3746 13.1696 17.32 11.1186 17.32 8.6823Z" fill="#4285F4"/>
<path d="M8.99976 16.5005C11.3398 16.5005 13.3015 15.7841 14.7354 14.5623L11.9346 12.5551C11.1585 13.0351 10.1658 13.3187 8.99976 13.3187C6.74244 13.3187 4.83188 11.9114 4.15033 10.0205H1.25488V12.0932C2.68098 14.7078 5.61188 16.5005 8.99976 16.5005Z" fill="#34A853"/>
<path d="M4.15049 10.0199C3.97715 9.53995 3.8787 9.02723 3.8787 8.49995C3.8787 7.97267 3.97715 7.45995 4.15049 6.97995V4.90723H1.25504C0.668132 5.98723 0.333252 7.20907 0.333252 8.49995C0.333252 9.79083 0.668132 11.0127 1.25504 12.0927L4.15049 10.0199Z" fill="#FBBC04"/>
<path d="M8.99976 3.68184C10.2721 3.68184 11.4146 4.08544 12.3128 4.87816L14.7985 2.5836C13.2976 1.29272 11.3358 0.5 8.99976 0.5C5.61188 0.5 2.68098 2.29272 1.25488 4.90728L4.15033 6.98C4.83188 5.08912 6.74244 3.68184 8.99976 3.68184Z" fill="#E94235"/>
</g>
</svg>
