<svg width="16" height="16" viewBox="0 0 16 16" fill="none" xmlns="http://www.w3.org/2000/svg">
<g clip-path="url(#clip0_591_4013)">
<path d="M14.3186 6.57206C14.1713 6.3134 13.9853 5.9834 13.8926 5.77206C13.8579 5.6918 13.8394 5.6055 13.838 5.51806C13.786 2.06206 10.572 6.30766e-05 7.46665 6.30766e-05C6.58134 -0.0113392 5.70267 0.154215 4.88221 0.48701C4.06175 0.819806 3.31603 1.31314 2.68882 1.93805C2.06161 2.56296 1.56555 3.30686 1.22974 4.12609C0.893939 4.94533 0.725161 5.82338 0.733314 6.70873C0.733314 9.09673 1.53731 10.8047 3.18865 11.9167C3.23361 11.9476 3.27031 11.989 3.29553 12.0374C3.32075 12.0857 3.33373 12.1395 3.33331 12.1941V15.6667C3.33331 15.7551 3.36843 15.8399 3.43095 15.9024C3.49346 15.9649 3.57824 16.0001 3.66665 16.0001H10.3333C10.4217 16.0001 10.5065 15.9649 10.569 15.9024C10.6315 15.8399 10.6666 15.7551 10.6666 15.6667V14.0081C10.6666 13.9216 10.7002 13.8385 10.7602 13.7763C10.8203 13.7141 10.9022 13.6777 10.9886 13.6747C11.7539 13.7422 12.5154 13.5099 13.1126 13.0267C13.602 12.5381 13.7366 11.1861 13.772 10.3301C13.7754 10.244 13.8121 10.1626 13.8742 10.1029C13.9363 10.0433 14.0192 10.01 14.1053 10.0101C14.232 10.0101 14.362 10.0101 14.4806 10.0027C15.1993 9.9714 15.24 9.40273 15.2633 9.0694C15.3173 8.32673 14.7866 7.39406 14.3186 6.57206ZM10.7133 7.40006C10.673 7.41969 10.6371 7.44725 10.6077 7.48107C10.5783 7.5149 10.5561 7.55431 10.5422 7.59694C10.5284 7.63957 10.5234 7.68455 10.5273 7.72918C10.5313 7.77382 10.5442 7.8172 10.5653 7.85673C10.7516 8.19644 10.8426 8.5802 10.8286 8.9674C10.8288 9.20213 10.7734 9.43358 10.6669 9.64277C10.5604 9.85196 10.4059 10.0329 10.216 10.1709C10.026 10.3089 9.80613 10.3999 9.57426 10.4364C9.34239 10.473 9.10515 10.4542 8.88198 10.3814C8.51081 10.2744 8.1747 10.0708 7.90798 9.7914C7.8769 9.75924 7.83966 9.73366 7.79848 9.7162C7.75731 9.69873 7.71304 9.68973 7.66831 9.68973C7.62359 9.68973 7.57932 9.69873 7.53815 9.7162C7.49697 9.73366 7.45973 9.75924 7.42865 9.7914C7.16236 10.071 6.8264 10.2747 6.45531 10.3814C6.23214 10.4542 5.9949 10.473 5.76303 10.4364C5.53116 10.3999 5.31126 10.3089 5.12133 10.1709C4.93141 10.0329 4.77687 9.85196 4.67038 9.64277C4.56388 9.43358 4.50846 9.20213 4.50865 8.9674C4.49399 8.58115 4.58455 8.19817 4.77065 7.8594C4.79178 7.81991 4.80474 7.77656 4.80875 7.73196C4.81276 7.68735 4.80774 7.64239 4.79399 7.59977C4.78023 7.55714 4.75803 7.51773 4.72871 7.48387C4.69939 7.45002 4.66354 7.42242 4.62331 7.40273C4.22535 7.24274 3.89793 6.94536 3.70051 6.56457C3.50308 6.18379 3.44873 5.74484 3.54731 5.3274C3.62313 5.10609 3.74857 4.90507 3.91404 4.73971C4.07951 4.57436 4.28062 4.44905 4.50198 4.3734C4.86427 4.23992 5.25607 4.20765 5.63531 4.28006C5.67945 4.28825 5.72478 4.28743 5.76859 4.27767C5.8124 4.26791 5.85379 4.2494 5.89027 4.22325C5.92675 4.1971 5.95758 4.16385 5.9809 4.1255C6.00422 4.08715 6.01955 4.04448 6.02598 4.00006C6.054 3.57163 6.23514 3.16756 6.53634 2.86159C6.83754 2.55562 7.23871 2.36815 7.66665 2.3334C8.0953 2.36724 8.49743 2.5543 8.79945 2.86036C9.10146 3.16642 9.28317 3.571 9.31131 4.00006C9.31744 4.04452 9.33248 4.08728 9.35553 4.12579C9.37858 4.16429 9.40918 4.19774 9.44547 4.22414C9.48176 4.25054 9.52301 4.26933 9.56675 4.2794C9.61048 4.28947 9.6558 4.2906 9.69998 4.28273C10.0792 4.21073 10.4709 4.24298 10.8333 4.37606C11.0548 4.45163 11.256 4.5769 11.4216 4.74226C11.5872 4.90762 11.7128 5.10869 11.7886 5.33006C11.8887 5.74675 11.8351 6.18556 11.6375 6.56585C11.4399 6.94614 11.1118 7.24236 10.7133 7.40006Z" fill="#37DBBD"/>
<path d="M9.5847 6.58815C9.51187 6.56456 9.4463 6.5227 9.39425 6.46656C9.3422 6.41042 9.3054 6.34189 9.28737 6.26749C9.26813 6.1891 9.24317 6.11223 9.2127 6.03749C9.18364 5.96683 9.17316 5.8899 9.18227 5.81405C9.19137 5.73819 9.21975 5.66593 9.2647 5.60415C9.36866 5.46111 9.41155 5.28263 9.38392 5.10797C9.35629 4.93331 9.26041 4.77678 9.11737 4.67282C9.04654 4.62134 8.96627 4.58432 8.88113 4.56386C8.796 4.54341 8.70767 4.53992 8.62119 4.5536C8.44653 4.58123 8.29 4.67711 8.18603 4.82015C8.14119 4.88208 8.08129 4.93155 8.01199 4.96386C7.94269 4.99618 7.8663 5.01027 7.79003 5.00482C7.70903 4.99882 7.6277 4.99882 7.5467 5.00482C7.47062 5.0101 7.39444 4.996 7.3253 4.96382C7.25616 4.93163 7.19631 4.88243 7.15137 4.82082C7.04754 4.67784 6.8912 4.58192 6.7167 4.55415C6.62999 4.53997 6.54132 4.54328 6.45591 4.56389C6.37049 4.5845 6.29007 4.62199 6.21937 4.67415C6.1483 4.72569 6.08812 4.79075 6.04226 4.8656C5.99641 4.94046 5.96579 5.02363 5.95216 5.11035C5.93853 5.19707 5.94217 5.28563 5.96285 5.37094C5.98354 5.45625 6.02087 5.53664 6.0727 5.60749C6.11753 5.66932 6.14584 5.74157 6.15494 5.8174C6.16404 5.89323 6.15363 5.97013 6.1247 6.04082C6.09423 6.11556 6.06927 6.19243 6.05003 6.27082C6.03176 6.34521 5.9948 6.41371 5.94265 6.46983C5.8905 6.52595 5.82489 6.56782 5.75203 6.59149C5.66869 6.6186 5.59151 6.66189 5.52491 6.71886C5.45831 6.77584 5.40359 6.84539 5.3639 6.92354C5.32421 7.00168 5.30032 7.08689 5.29359 7.17427C5.28687 7.26166 5.29744 7.34952 5.3247 7.43282C5.38279 7.59887 5.50292 7.73599 5.6599 7.81541C5.81688 7.89483 5.9985 7.91038 6.1667 7.85882C6.23899 7.83543 6.31605 7.83087 6.39059 7.84557C6.46514 7.86027 6.5347 7.89374 6.5927 7.94282C6.65573 7.99548 6.72258 8.04339 6.7927 8.08615C6.85745 8.12666 6.91082 8.18298 6.94779 8.24981C6.98476 8.31664 7.00412 8.39178 7.00403 8.46815C7.00403 8.64496 7.07427 8.81453 7.1993 8.93956C7.32432 9.06458 7.49389 9.13482 7.6707 9.13482C7.84751 9.13482 8.01708 9.06458 8.1421 8.93956C8.26713 8.81453 8.33737 8.64496 8.33737 8.46815C8.33731 8.39154 8.35681 8.31618 8.39403 8.24921C8.43124 8.18225 8.48494 8.12589 8.55003 8.08549C8.62018 8.04276 8.68704 7.99485 8.75003 7.94215C8.80806 7.89336 8.87753 7.86011 8.95193 7.84553C9.02633 7.83096 9.10322 7.83553 9.17537 7.85882C9.34374 7.91072 9.52568 7.89525 9.68287 7.81566C9.84005 7.73607 9.96021 7.59858 10.018 7.43215C10.0456 7.3483 10.0562 7.25982 10.0493 7.17184C10.0424 7.08385 10.018 6.99812 9.97773 6.9196C9.93742 6.84109 9.88192 6.77136 9.81445 6.71447C9.74698 6.65757 9.66889 6.61463 9.5847 6.58815ZM7.6667 7.33349C7.53485 7.33349 7.40595 7.29439 7.29632 7.22113C7.18669 7.14788 7.10124 7.04376 7.05078 6.92194C7.00032 6.80012 6.98712 6.66608 7.01284 6.53676C7.03857 6.40744 7.10206 6.28865 7.1953 6.19541C7.28853 6.10218 7.40732 6.03869 7.53664 6.01296C7.66596 5.98724 7.8 6.00044 7.92182 6.0509C8.04364 6.10136 8.14776 6.18681 8.22101 6.29644C8.29427 6.40607 8.33337 6.53496 8.33337 6.66682C8.33337 6.84363 8.26313 7.0132 8.1381 7.13822C8.01308 7.26325 7.84351 7.33349 7.6667 7.33349Z" fill="#37DBBD"/>
</g>
<defs>
<clipPath id="clip0_591_4013">
<rect width="16" height="16" fill="white"/>
</clipPath>
</defs>
</svg>
