<svg width="16" height="17" viewBox="0 0 16 17" fill="none" xmlns="http://www.w3.org/2000/svg">
<path d="M15.5347 3.22649H15.5347C14.4276 0.763482 11.7823 -0.207886 9.62622 1.05688C9.23838 1.28439 8.88239 1.57665 8.56997 1.92404L8.00057 2.5189L7.44917 1.94537C6.45357 0.814278 5.04115 0.301974 3.65674 0.569798C2.28036 0.814947 1.09224 1.80405 0.466385 3.22573L0.466385 3.22573C-0.379784 5.12004 -0.0532837 7.42238 1.27314 8.91462L7.52251 16.2693C7.7792 16.5709 8.20132 16.5777 8.46533 16.2844C8.46982 16.2795 8.47425 16.2744 8.47862 16.2693L14.7193 8.92833C16.0512 7.43463 16.3812 5.12674 15.5347 3.22649L15.5347 3.22649Z" fill="white"/>
</svg>
