<svg width="16" height="16" viewBox="0 0 16 16" fill="none" xmlns="http://www.w3.org/2000/svg">
<g clip-path="url(#clip0_591_3969)">
<path d="M15.5773 12.8444L13.9773 10.0857C13.9631 10.0613 13.9428 10.0409 13.9185 10.0264C13.8942 10.0119 13.8666 10.0039 13.8384 10.003C13.8101 10.0021 13.7821 10.0085 13.7569 10.0214C13.7318 10.0344 13.7103 10.0535 13.6946 10.0771C12.8811 11.3027 11.6949 12.2341 10.3113 12.7337C10.2882 12.7419 10.2671 12.7552 10.2497 12.7724C10.2323 12.7897 10.219 12.8107 10.2106 12.8337C10.2023 12.857 10.1992 12.8817 10.2015 12.9062C10.2038 12.9308 10.2115 12.9545 10.224 12.9757L11.5406 15.2044C11.6052 15.313 11.6993 15.4009 11.812 15.4581C11.9246 15.5152 12.0512 15.5391 12.1769 15.5271C12.3027 15.5151 12.4224 15.4676 12.5222 15.3902C12.622 15.3128 12.6978 15.2086 12.7406 15.0897L13.2953 13.5651L14.89 13.8351C15.0149 13.8545 15.1427 13.8386 15.2591 13.7893C15.3755 13.7399 15.4757 13.659 15.5486 13.5557C15.6196 13.4518 15.6599 13.33 15.665 13.2042C15.6701 13.0784 15.6397 12.9537 15.5773 12.8444Z" fill="#424049"/>
<path d="M2.31403 10.0601C2.29851 10.0363 2.27709 10.0169 2.25186 10.0038C2.22663 9.99075 2.19843 9.98442 2.17003 9.98546C2.14169 9.98625 2.11402 9.99426 2.08964 10.0087C2.06526 10.0232 2.04497 10.0436 2.0307 10.0681L0.422696 12.8448C0.359295 12.9543 0.328382 13.0796 0.333568 13.2061C0.338754 13.3325 0.379827 13.4549 0.451984 13.5589C0.524142 13.6628 0.624403 13.7441 0.741049 13.7932C0.857695 13.8423 0.985906 13.8572 1.1107 13.8361L2.7047 13.5661L3.26003 15.0915C3.30319 15.2101 3.37917 15.3141 3.47911 15.3912C3.57906 15.4684 3.69886 15.5156 3.82457 15.5273C3.95029 15.5391 4.07676 15.5149 4.18925 15.4575C4.30175 15.4002 4.39565 15.3121 4.46003 15.2035L5.78003 12.9695C5.79248 12.9483 5.80012 12.9247 5.80243 12.9003C5.80473 12.8759 5.80164 12.8512 5.79336 12.8281C5.78513 12.8051 5.77189 12.7842 5.75459 12.7669C5.7373 12.7496 5.71639 12.7364 5.69336 12.7281C4.30969 12.2247 3.12482 11.2892 2.31403 10.0601Z" fill="#424049"/>
<path d="M13.844 6.30404C13.844 5.15031 13.5019 4.0225 12.8609 3.06321C12.22 2.10393 11.3089 1.35625 10.243 0.914742C9.17712 0.473231 8.00423 0.357711 6.87268 0.582792C5.74112 0.807872 4.70172 1.36344 3.88591 2.17925C3.07011 2.99506 2.51454 4.03446 2.28946 5.16601C2.06438 6.29757 2.1799 7.47046 2.62141 8.53636C3.06292 9.60226 3.81059 10.5133 4.76988 11.1543C5.72916 11.7953 6.85698 12.1374 8.0107 12.1374C9.55726 12.1356 11.04 11.5205 12.1335 10.4269C13.2271 9.3333 13.8423 7.85059 13.844 6.30404ZM6.80004 8.34204L5.6467 7.19204C5.59758 7.14626 5.55818 7.09106 5.53085 7.02973C5.50352 6.9684 5.48883 6.90219 5.48764 6.83505C5.48646 6.76792 5.49881 6.70123 5.52396 6.63897C5.5491 6.57671 5.58653 6.52016 5.63401 6.47268C5.68149 6.4252 5.73805 6.38777 5.80031 6.36262C5.86256 6.33748 5.92925 6.32513 5.99639 6.32631C6.06352 6.3275 6.12973 6.34219 6.19106 6.36952C6.2524 6.39685 6.3076 6.43625 6.35337 6.48537L7.50537 7.6367L9.99604 4.38404C10.036 4.3319 10.0858 4.28814 10.1426 4.25525C10.1994 4.22237 10.2622 4.20099 10.3273 4.19236C10.3924 4.18372 10.4585 4.18799 10.522 4.20492C10.5854 4.22185 10.6449 4.25112 10.697 4.29104C10.7492 4.33096 10.7929 4.38076 10.8258 4.43759C10.8587 4.49443 10.8801 4.55718 10.8887 4.62228C10.8974 4.68737 10.8931 4.75353 10.8762 4.81697C10.8592 4.88042 10.83 4.9399 10.79 4.99204L8.3027 8.24137C8.21623 8.35482 8.10649 8.44846 7.98084 8.51599C7.8552 8.58353 7.71656 8.62341 7.57423 8.63294C7.4319 8.64247 7.28918 8.62145 7.15565 8.57127C7.02212 8.5211 6.90087 8.44294 6.80004 8.34204Z" fill="#424049"/>
</g>
<defs>
<clipPath id="clip0_591_3969">
<rect width="16" height="16" fill="white"/>
</clipPath>
</defs>
</svg>
