<svg width="18" height="16" viewBox="0 0 18 16" fill="none" xmlns="http://www.w3.org/2000/svg">
<path d="M16.8293 2.72649H16.8293C15.6299 0.263482 12.7641 -0.707886 10.4284 0.556884C10.0082 0.784394 9.62259 1.07665 9.28413 1.42404L8.66728 2.0189L8.06994 1.44537C6.99137 0.314278 5.46125 -0.198026 3.96147 0.0697984C2.47039 0.314947 1.18326 1.30405 0.505251 2.72573L0.50525 2.72573C-0.411432 4.62004 -0.057724 6.92238 1.37924 8.41462L8.14939 15.7693C8.42746 16.0709 8.88476 16.0777 9.17078 15.7844C9.17564 15.7795 9.18044 15.7744 9.18517 15.7693L15.9459 8.42833C17.3888 6.93463 17.7463 4.62674 16.8293 2.72649L16.8293 2.72649Z" fill="#1C1B1F"/>
</svg>
