<svg width="16" height="18" viewBox="0 0 16 18" fill="none" xmlns="http://www.w3.org/2000/svg">
<path d="M0.333496 9.16688C0.333496 10.8096 0.783138 12.4154 1.62556 13.7812C2.46799 15.147 3.66536 16.2116 5.06626 16.8402C6.46716 17.4688 8.00867 17.6333 9.49586 17.3129C10.983 16.9924 12.3491 16.2014 13.4213 15.0398C14.4935 13.8782 15.2237 12.3983 15.5195 10.7872C15.8153 9.1761 15.6635 7.50613 15.0832 5.98849C14.503 4.47084 13.5203 3.17369 12.2595 2.26107C10.9988 1.34844 9.51649 0.861328 8.00016 0.861328C5.96754 0.863813 4.01883 1.73966 2.58154 3.29671C1.14426 4.85377 0.33579 6.96488 0.333496 9.16688ZM3.66683 8.80577C3.66683 8.61423 3.73707 8.43053 3.86209 8.29508C3.98712 8.15964 4.15669 8.08355 4.3335 8.08355H6.8335C6.8777 8.08355 6.92009 8.06453 6.95135 8.03067C6.9826 7.99681 7.00016 7.95088 7.00016 7.903V5.19466C7.00016 5.00312 7.0704 4.81942 7.19543 4.68397C7.32045 4.54853 7.49002 4.47244 7.66683 4.47244H8.3335C8.51031 4.47244 8.67988 4.54853 8.8049 4.68397C8.92992 4.81942 9.00016 5.00312 9.00016 5.19466V7.903C9.00016 7.95088 9.01772 7.99681 9.04898 8.03067C9.08023 8.06453 9.12263 8.08355 9.16683 8.08355H11.6668C11.8436 8.08355 12.0132 8.15964 12.1382 8.29508C12.2633 8.43053 12.3335 8.61423 12.3335 8.80577V9.528C12.3335 9.71954 12.2633 9.90324 12.1382 10.0387C12.0132 10.1741 11.8436 10.2502 11.6668 10.2502H9.16683C9.12263 10.2502 9.08023 10.2692 9.04898 10.3031C9.01772 10.337 9.00016 10.3829 9.00016 10.4308V13.1391C9.00016 13.3307 8.92992 13.5144 8.8049 13.6498C8.67988 13.7852 8.51031 13.8613 8.3335 13.8613H7.66683C7.49002 13.8613 7.32045 13.7852 7.19543 13.6498C7.0704 13.5144 7.00016 13.3307 7.00016 13.1391V10.4308C7.00016 10.3829 6.9826 10.337 6.95135 10.3031C6.92009 10.2692 6.8777 10.2502 6.8335 10.2502H4.3335C4.15669 10.2502 3.98712 10.1741 3.86209 10.0387C3.73707 9.90324 3.66683 9.71954 3.66683 9.528V8.80577Z" fill="white"/>
</svg>
