<svg width="18" height="18" viewBox="0 0 18 18" fill="none" xmlns="http://www.w3.org/2000/svg">
<path d="M0.361328 9.16688C0.361328 10.8096 0.84844 12.4154 1.76107 13.7812C2.67369 15.147 3.97084 16.2116 5.48848 16.8402C7.00613 17.4688 8.6761 17.6333 10.2872 17.3129C11.8983 16.9924 13.3782 16.2014 14.5398 15.0398C15.7013 13.8782 16.4924 12.3983 16.8128 10.7872C17.1333 9.1761 16.9688 7.50613 16.3402 5.98849C15.7116 4.47084 14.647 3.17369 13.2812 2.26107C11.9154 1.34844 10.3096 0.861328 8.66688 0.861328C6.46488 0.863813 4.35377 1.73966 2.79671 3.29671C1.23966 4.85377 0.363813 6.96488 0.361328 9.16688ZM3.97244 8.80577C3.97244 8.61423 4.04853 8.43053 4.18397 8.29508C4.31942 8.15964 4.50312 8.08355 4.69466 8.08355H7.40299C7.45088 8.08355 7.49681 8.06453 7.53067 8.03067C7.56453 7.99681 7.58355 7.95088 7.58355 7.903V5.19466C7.58355 5.00312 7.65964 4.81942 7.79508 4.68397C7.93053 4.54853 8.11423 4.47244 8.30577 4.47244H9.02799C9.21954 4.47244 9.40324 4.54853 9.53868 4.68397C9.67412 4.81942 9.75022 5.00312 9.75022 5.19466V7.903C9.75022 7.95088 9.76924 7.99681 9.8031 8.03067C9.83696 8.06453 9.88288 8.08355 9.93077 8.08355H12.6391C12.8307 8.08355 13.0144 8.15964 13.1498 8.29508C13.2852 8.43053 13.3613 8.61423 13.3613 8.80577V9.528C13.3613 9.71954 13.2852 9.90324 13.1498 10.0387C13.0144 10.1741 12.8307 10.2502 12.6391 10.2502H9.93077C9.88288 10.2502 9.83696 10.2692 9.8031 10.3031C9.76924 10.337 9.75022 10.3829 9.75022 10.4308V13.1391C9.75022 13.3307 9.67412 13.5144 9.53868 13.6498C9.40324 13.7852 9.21954 13.8613 9.02799 13.8613H8.30577C8.11423 13.8613 7.93053 13.7852 7.79508 13.6498C7.65964 13.5144 7.58355 13.3307 7.58355 13.1391V10.4308C7.58355 10.3829 7.56453 10.337 7.53067 10.3031C7.49681 10.2692 7.45088 10.2502 7.40299 10.2502H4.69466C4.50312 10.2502 4.31942 10.1741 4.18397 10.0387C4.04853 9.90324 3.97244 9.71954 3.97244 9.528V8.80577Z" fill="#1C1B1F"/>
</svg>
