<svg width="16" height="16" viewBox="0 0 16 16" fill="none" xmlns="http://www.w3.org/2000/svg">
<path d="M8 0C6.41775 0 4.87103 0.469192 3.55544 1.34824C2.23985 2.22729 1.21447 3.47672 0.608967 4.93853C0.00346629 6.40034 -0.15496 8.00887 0.153721 9.56072C0.462403 11.1126 1.22433 12.538 2.34315 13.6569C3.46197 14.7757 4.88743 15.5376 6.43928 15.8463C7.99113 16.155 9.59966 15.9965 11.0615 15.391C12.5233 14.7855 13.7727 13.7602 14.6518 12.4446C15.5308 11.129 16 9.58225 16 8C15.9977 5.87897 15.1541 3.84547 13.6543 2.34568C12.1545 0.845885 10.121 0.00229405 8 0ZM11.544 8.256L6.4 12.5447C6.35129 12.5852 6.29202 12.6111 6.22914 12.6192C6.16627 12.6272 6.10239 12.6172 6.045 12.5903C5.98762 12.5633 5.93911 12.5206 5.90516 12.467C5.87121 12.4135 5.85323 12.3514 5.85334 12.288V10.4967C5.8533 10.4459 5.86488 10.3957 5.88718 10.3501C5.90947 10.3045 5.94191 10.2645 5.982 10.2333L8.682 8.13333C8.70207 8.11782 8.71831 8.09792 8.72949 8.07515C8.74067 8.05239 8.74648 8.02736 8.74648 8.002C8.74648 7.97664 8.74067 7.95161 8.72949 7.92885C8.71831 7.90608 8.70207 7.88618 8.682 7.87067L5.98 5.76667C5.93991 5.73548 5.90747 5.69554 5.88517 5.6499C5.86287 5.60426 5.8513 5.55413 5.85134 5.50333V3.712C5.85123 3.6486 5.86921 3.58649 5.90316 3.53296C5.93711 3.47942 5.98562 3.43667 6.043 3.40973C6.10039 3.38278 6.16427 3.37276 6.22714 3.38084C6.29002 3.38892 6.34929 3.41476 6.398 3.45533L11.544 7.744C11.5815 7.77528 11.6117 7.81443 11.6324 7.85867C11.6531 7.9029 11.6639 7.95115 11.6639 8C11.6639 8.04884 11.6531 8.09709 11.6324 8.14133C11.6117 8.18557 11.5815 8.22472 11.544 8.256Z" fill="#2573C1"/>
</svg>
