<svg width="12" height="12" viewBox="0 0 12 12" fill="none" xmlns="http://www.w3.org/2000/svg">
<path d="M11.7775 4.36457C11.6681 4.07073 11.388 3.8755 11.0745 3.87457H8.031C7.92486 3.87465 7.83024 3.80769 7.795 3.70757L6.7025 0.611072C6.55743 0.223092 6.12532 0.0261719 5.73734 0.171238C5.53397 0.247276 5.37354 0.407709 5.2975 0.611072L5.295 0.619072L4.205 3.70757C4.16983 3.80752 4.07546 3.87444 3.9695 3.87457H0.925004C0.51079 3.87426 0.174754 4.20979 0.174439 4.62401C0.174271 4.84643 0.272833 5.05745 0.443502 5.20007L3.0355 7.35007C3.11486 7.41593 3.14564 7.52375 3.113 7.62157L2.024 10.8871C1.89302 11.28 2.10539 11.7048 2.49834 11.8358C2.72911 11.9127 2.98284 11.8729 3.179 11.7291L5.852 9.76907C5.93996 9.70463 6.05955 9.70463 6.1475 9.76907L8.8195 11.7286C9.1531 11.9741 9.62257 11.9027 9.86811 11.5691C10.0127 11.3728 10.0527 11.1184 9.9755 10.8871L8.8865 7.61958C8.85387 7.52175 8.88465 7.41393 8.964 7.34808L11.561 5.19508C11.8001 4.99097 11.8865 4.65943 11.7775 4.36458L11.7775 4.36457Z" fill="#868686"/>
</svg>
