<svg width="64" height="64" viewBox="0 0 64 64" fill="none" xmlns="http://www.w3.org/2000/svg">
<circle cx="32" cy="32" r="32" fill="#E3E9EF"/>
<g clip-path="url(#clip0_79_361)">
<path d="M43.9998 30.4126C43.998 29.6348 43.8403 28.8653 43.5359 28.1496C43.2316 27.4339 42.7868 26.7864 42.2278 26.2456C41.293 25.3399 40.0769 24.7807 38.7808 24.6606C38.7418 24.657 38.7041 24.6443 38.671 24.6235C38.6378 24.6026 38.61 24.5742 38.5898 24.5406C37.7998 23.2192 36.631 22.1657 35.2351 21.5165C33.8391 20.8672 32.2804 20.6523 30.7608 20.8995C29.2413 21.1468 27.831 21.8447 26.7129 22.903C25.5947 23.9612 24.8202 25.331 24.4898 26.8346C24.4789 26.8881 24.4508 26.9366 24.4098 26.9726C24.3689 27.0087 24.3173 27.0305 24.2628 27.0346C23.1058 27.1172 22.0229 27.6349 21.2321 28.4835C20.4412 29.3321 20.0009 30.4486 19.9998 31.6086C19.9753 32.1998 20.0723 32.7897 20.2849 33.3418C20.4975 33.8939 20.8211 34.3966 21.2358 34.8186C22.2321 35.6979 23.5121 36.1883 24.8408 36.1996C25.106 36.1956 25.3588 36.0865 25.5435 35.8961C25.7283 35.7058 25.8298 35.4498 25.8258 35.1846C25.8218 34.9194 25.7127 34.6666 25.5223 34.4819C25.332 34.2972 25.076 34.1956 24.8108 34.1996C24.0138 34.205 23.2419 33.9207 22.6388 33.3996C22.4146 33.1612 22.2421 32.8791 22.1322 32.5709C22.0222 32.2627 21.9771 31.9351 21.9998 31.6086C21.9987 31.2237 22.0838 30.8435 22.2488 30.4958C22.4139 30.1482 22.6548 29.8419 22.9538 29.5996C23.2533 29.3565 23.6031 29.1831 23.9779 29.092C24.3528 29.0008 24.7431 28.9942 25.1208 29.0726C25.2612 29.1015 25.4062 29.0999 25.5459 29.0679C25.6856 29.0359 25.8169 28.9743 25.9307 28.8871C26.0445 28.7999 26.1382 28.6893 26.2055 28.5628C26.2728 28.4362 26.3122 28.2967 26.3208 28.1536C26.3953 26.8922 26.8878 25.6916 27.7205 24.7413C28.5533 23.7909 29.6789 23.1451 30.9196 22.9056C32.1602 22.6662 33.4453 22.8469 34.5719 23.4191C35.6985 23.9913 36.6024 24.9225 37.1408 26.0656C37.2206 26.2454 37.3535 26.3965 37.5218 26.4984C37.6901 26.6003 37.8855 26.6482 38.0818 26.6356C38.589 26.6122 39.0957 26.6934 39.5702 26.8742C40.0446 27.055 40.4768 27.3315 40.8398 27.6866C41.2081 28.0385 41.5008 28.4616 41.7003 28.9303C41.8997 29.3989 42.0016 29.9033 41.9998 30.4126C41.9931 31.3562 41.6386 32.2643 41.0044 32.963C40.3701 33.6616 39.5004 34.1019 38.5618 34.1996C38.3091 34.2317 38.0781 34.3591 37.9161 34.5558C37.7541 34.7524 37.6733 35.0035 37.6901 35.2577C37.707 35.512 37.8202 35.7502 38.0067 35.9237C38.1933 36.0973 38.439 36.1931 38.6938 36.1916C38.7376 36.1916 38.7814 36.1886 38.8248 36.1826C40.2466 36.0269 41.5609 35.3521 42.5158 34.2873C43.4708 33.2226 43.9992 31.8429 43.9998 30.4126Z" fill="#2573C1"/>
<path d="M32.7069 28.9891C32.5194 28.8016 32.2651 28.6963 31.9999 28.6963C31.7347 28.6963 31.4804 28.8016 31.2929 28.9891L27.7929 32.4891C27.6517 32.6287 27.5553 32.8072 27.5159 33.0019C27.4766 33.1965 27.4961 33.3984 27.5719 33.582C27.6477 33.7655 27.7765 33.9223 27.9418 34.0324C28.107 34.1425 28.3013 34.2008 28.4999 34.2001H30.2499C30.2828 34.1999 30.3153 34.2063 30.3457 34.2188C30.3761 34.2314 30.4037 34.2498 30.427 34.273C30.4502 34.2962 30.4686 34.3239 30.4811 34.3542C30.4937 34.3846 30.5 34.4172 30.4999 34.4501V41.7001C30.4999 42.0979 30.6579 42.4794 30.9392 42.7607C31.2206 43.042 31.6021 43.2001 31.9999 43.2001C32.3977 43.2001 32.7793 43.042 33.0606 42.7607C33.3419 42.4794 33.4999 42.0979 33.4999 41.7001V34.4501C33.4998 34.4172 33.5062 34.3846 33.5187 34.3542C33.5312 34.3239 33.5496 34.2962 33.5728 34.273C33.5961 34.2498 33.6237 34.2314 33.6541 34.2188C33.6845 34.2063 33.717 34.1999 33.7499 34.2001H35.4999C35.6977 34.2 35.891 34.1414 36.0554 34.0315C36.2198 33.9216 36.3479 33.7654 36.4236 33.5827C36.4993 33.4 36.5191 33.199 36.4805 33.005C36.4419 32.8111 36.3467 32.6329 36.2069 32.4931L32.7069 28.9891Z" fill="#2573C1"/>
</g>
<defs>
<clipPath id="clip0_79_361">
<rect width="24" height="24" fill="white" transform="translate(20 20)"/>
</clipPath>
</defs>
</svg>
