<svg width="18" height="18" viewBox="0 0 18 18" fill="none" xmlns="http://www.w3.org/2000/svg">
<g clip-path="url(#clip0_591_3925)">
<path d="M9.00001 0.655273C4.05451 0.655273 0.0307617 4.00027 0.0307617 8.11177C0.0420135 9.05464 0.251105 9.98465 0.644504 10.8416C1.0379 11.6986 1.60685 12.4634 2.31451 13.0865L0.726762 16.256C0.657182 16.3952 0.632605 16.5525 0.656435 16.7063C0.680265 16.86 0.751322 17.0026 0.859763 17.1142C0.968203 17.2257 1.10866 17.3008 1.26167 17.329C1.41468 17.3572 1.57268 17.3371 1.71376 17.2715L6.18151 15.1925C7.10003 15.4429 8.04797 15.5691 9.00001 15.5675C13.9455 15.5675 17.9693 12.2233 17.9693 8.11252C17.9693 4.00177 13.9455 0.655273 9.00001 0.655273ZM9.00001 14.0668C8.09877 14.0694 7.20217 13.9377 6.33976 13.676C6.16241 13.6228 5.97174 13.6362 5.80351 13.7135L3.51901 14.7748C3.4837 14.7913 3.44413 14.7963 3.40581 14.7893C3.36748 14.7822 3.33231 14.7634 3.30517 14.7354C3.27803 14.7075 3.26028 14.6718 3.25438 14.6332C3.24848 14.5947 3.25473 14.5553 3.27226 14.5205L3.91726 13.2328C3.99406 13.0793 4.01592 12.9042 3.9792 12.7366C3.94249 12.569 3.84942 12.4191 3.71551 12.3118C3.05569 11.8242 2.5159 11.1924 2.13728 10.4645C1.75867 9.73665 1.55122 8.93196 1.53076 8.11177C1.53076 4.82752 4.88176 2.15527 9.00001 2.15527C13.1183 2.15527 16.4693 4.82752 16.4693 8.11177C16.4693 11.396 13.1183 14.0668 9.00001 14.0668Z" fill="#319CFF"/>
<path d="M6.75 5.33008C6.30245 5.33008 5.87323 5.50787 5.55676 5.82434C5.24029 6.1408 5.0625 6.57003 5.0625 7.01758C5.0625 7.46513 5.24029 7.89435 5.55676 8.21082C5.87323 8.52729 6.30245 8.70508 6.75 8.70508C6.81284 8.70241 6.87546 8.6959 6.9375 8.68558V8.90533C6.9375 9.10424 6.85848 9.29501 6.71783 9.43566C6.57718 9.57631 6.38641 9.65533 6.1875 9.65533C5.98859 9.65533 5.79782 9.73435 5.65717 9.875C5.51652 10.0157 5.4375 10.2064 5.4375 10.4053C5.4375 10.6042 5.51652 10.795 5.65717 10.9357C5.79782 11.0763 5.98859 11.1553 6.1875 11.1553C6.78424 11.1553 7.35653 10.9183 7.77849 10.4963C8.20045 10.0744 8.4375 9.50207 8.4375 8.90533V7.01758C8.4371 6.57015 8.25919 6.14116 7.9428 5.82477C7.62642 5.50839 7.19743 5.33048 6.75 5.33008Z" fill="#319CFF"/>
<path d="M11.25 5.33008C10.8024 5.33008 10.3732 5.50787 10.0568 5.82434C9.74029 6.1408 9.5625 6.57003 9.5625 7.01758C9.5625 7.46513 9.74029 7.89435 10.0568 8.21082C10.3732 8.52729 10.8024 8.70508 11.25 8.70508C11.3128 8.70241 11.3755 8.6959 11.4375 8.68558V8.90533C11.4375 9.10424 11.3585 9.29501 11.2178 9.43566C11.0772 9.57631 10.8864 9.65533 10.6875 9.65533C10.4886 9.65533 10.2978 9.73435 10.1572 9.875C10.0165 10.0157 9.9375 10.2064 9.9375 10.4053C9.9375 10.6042 10.0165 10.795 10.1572 10.9357C10.2978 11.0763 10.4886 11.1553 10.6875 11.1553C11.2842 11.1553 11.8565 10.9183 12.2785 10.4963C12.7004 10.0744 12.9375 9.50207 12.9375 8.90533V7.01758C12.9371 6.57015 12.7592 6.14116 12.4428 5.82477C12.1264 5.50839 11.6974 5.33048 11.25 5.33008Z" fill="#319CFF"/>
</g>
<defs>
<clipPath id="clip0_591_3925">
<rect width="18" height="18" fill="white"/>
</clipPath>
</defs>
</svg>
