<svg width="16" height="16" viewBox="0 0 16 16" fill="none" xmlns="http://www.w3.org/2000/svg">
<path d="M7.20002 0.14801V0.14801C6.79356 -0.0686657 6.28841 0.0851838 6.07173 0.491643C5.94282 0.733468 5.94093 1.02319 6.06668 1.26668V1.26668C7.04902 3.191 7.05842 5.46764 6.09202 7.40001C6.04714 7.47996 5.94596 7.50839 5.86601 7.46351C5.83828 7.44795 5.81561 7.42475 5.80068 7.39668V7.39668C5.6247 7.06885 5.49885 6.71649 5.42735 6.35134C5.39215 6.18067 5.27106 6.04041 5.10735 5.98068C4.94368 5.92071 4.76055 5.95081 4.62468 6.06001C2.71254 7.58468 1.96959 10.1494 2.77068 12.46H2.77068C3.52862 14.6398 5.63152 16.0602 7.93668 15.9493C10.756 15.9493 12.7274 14.5193 13.3474 12.028C14.2667 8.35001 12.0107 2.69734 7.20002 0.148009L7.20002 0.14801ZM10.358 12.0667C10.1917 13.2102 9.17217 14.0324 8.01935 13.9527C6.91797 13.9531 5.97508 13.1631 5.78268 12.0787C5.75014 11.8975 5.87066 11.7242 6.05185 11.6917C6.09679 11.6836 6.14291 11.6849 6.18735 11.6953C6.86628 11.6846 7.49359 11.3308 7.85402 10.7553C8.26913 10.316 8.3874 9.67375 8.15602 9.11534V9.11534C8.06596 8.95478 8.12312 8.75161 8.28368 8.66156C8.3692 8.61359 8.4715 8.60571 8.56335 8.64001C9.87521 9.23699 10.6144 10.6484 10.358 12.0667H10.358Z" fill="#F0681C"/>
</svg>
